<svg width="71" height="78" viewBox="0 0 71 78" fill="none" xmlns="http://www.w3.org/2000/svg">
<rect x="0.5" width="70" height="78" rx="20" fill="black"/>
<path d="M54.5064 24.0515L44.3788 34.25V63.0294C44.3788 64.1005 43.9973 65.0202 43.2342 65.7886C42.4712 66.557 41.5579 66.9412 40.4942 66.9412C39.4306 66.9412 38.5173 66.557 37.7542 65.7886C36.9912 65.0202 36.6097 64.1005 36.6097 63.0294V49.6176H34.3899V63.0294C34.3899 64.1005 34.0084 65.0202 33.2453 65.7886C32.4823 66.557 31.569 66.9412 30.5053 66.9412C29.4417 66.9412 28.5284 66.557 27.7653 65.7886C27.0023 65.0202 26.6208 64.1005 26.6208 63.0294V34.25L16.4931 24.0515C15.8457 23.3995 15.522 22.6078 15.522 21.6765C15.522 20.7451 15.8457 19.9534 16.4931 19.3015C17.1637 18.6495 17.9556 18.3235 18.8689 18.3235C19.7823 18.3235 20.5627 18.6495 21.2101 19.3015L29.118 27.2647H41.8816L49.7895 19.3015C50.4369 18.6495 51.223 18.3235 52.1479 18.3235C53.0728 18.3235 53.859 18.6495 54.5064 19.3015C55.1539 19.9767 55.4776 20.7742 55.4776 21.6939C55.4776 22.6137 55.1539 23.3995 54.5064 24.0515ZM43.2689 18.3235C43.2689 20.489 42.5117 22.3343 40.9971 23.8594C39.4826 25.3845 37.6502 26.1471 35.4998 26.1471C33.3494 26.1471 31.5169 25.3845 30.0024 23.8594C28.4879 22.3343 27.7306 20.489 27.7306 18.3235C27.7306 16.1581 28.4879 14.3128 30.0024 12.7877C31.5169 11.2626 33.3494 10.5 35.4998 10.5C37.6502 10.5 39.4826 11.2626 40.9971 12.7877C42.5117 14.3128 43.2689 16.1581 43.2689 18.3235Z" fill="white"/>
</svg>
