<svg width="77" height="80" viewBox="0 0 77 80" fill="none" xmlns="http://www.w3.org/2000/svg">
<rect x="0.043457" width="76.9131" height="79.9575" rx="20" fill="#D7AC1D"/>
<path d="M21.059 64.9575C17.759 64.9575 16.434 59.0575 16.159 56.7075C15.863 54.426 16.1379 52.1067 16.959 49.9575C17.3199 48.9349 17.9407 48.0238 18.7604 47.3137C19.5801 46.6036 20.5704 46.119 21.634 45.9075C24.559 45.4075 26.634 47.1575 29.284 47.7575C29.7818 47.9173 30.3125 47.9453 30.8244 47.8389C31.3362 47.7325 31.8118 47.4952 32.2046 47.1502C32.5974 46.8052 32.8941 46.3643 33.0658 45.8705C33.2374 45.3767 33.2782 44.8468 33.184 44.3325C32.084 40.0325 24.259 39.9575 21.059 39.9575C21.059 35.3075 26.159 34.7075 29.809 35.0575C31.9744 35.2667 34.1065 35.7368 36.159 36.4575C37.409 36.8825 38.859 37.9575 40.234 37.8575C42.309 37.6825 42.734 35.5325 41.834 33.9575C39.659 30.2575 33.484 29.9575 29.809 29.9575C29.809 24.9575 34.134 24.0075 38.284 24.7575C40.4268 25.1794 42.515 25.8419 44.509 26.7325C45.784 27.2825 47.309 28.3325 48.709 27.8575C52.309 26.7575 48.559 22.9075 46.959 21.9825C45.8361 21.3629 44.6447 20.8763 43.409 20.5325C42.059 20.1325 40.409 20.2825 41.634 18.7075C43.5495 17.0176 45.9261 15.9381 48.459 15.6075C53.184 14.5075 59.709 14.3075 60.859 20.2575C61.2422 23.3989 60.4885 26.5737 58.734 29.2075C54.0755 37.1734 48.3096 44.4375 41.609 50.7825C38.0594 54.4212 34.2128 57.7578 30.109 60.7575C27.609 62.5575 24.309 64.9575 21.059 64.9575Z" fill="white"/>
</svg>
