<svg width="75" height="76" viewBox="0 0 75 76" fill="none" xmlns="http://www.w3.org/2000/svg">
<rect width="75" height="75.8461" rx="20" fill="#FFD5D5"/>
<path d="M18.7502 16.6462C27.4971 12.2737 34.6877 17.5837 37.5002 21.3337C40.3127 17.5837 47.5033 12.2737 56.2502 16.6462C67.5002 22.2712 64.6877 36.3337 56.2502 44.7712C52.1327 48.8887 44.8821 56.1393 39.5796 60.1724C38.9872 60.6224 38.2605 60.8595 37.5168 60.8456C36.7731 60.8316 36.0558 60.5674 35.4808 60.0956C30.6189 56.1712 22.8096 48.8306 18.7502 44.7712C10.3127 36.3337 7.50018 22.2712 18.7502 16.6462Z" fill="#F8312F"/>
<path d="M37.5002 21.3337V27.0524C39.8814 22.0181 45.7971 15.2962 55.6089 16.3406C47.1527 12.5343 40.2433 17.6756 37.5002 21.3337ZM29.8989 15.7781C26.7377 14.6774 22.9221 14.5593 18.7502 16.6462C7.50018 22.2712 10.3127 36.3337 18.7502 44.7712C22.8096 48.8306 30.6189 56.1712 35.4808 60.0956C36.0561 60.5671 36.7735 60.831 37.5172 60.8446C38.2609 60.8582 38.9874 60.6208 39.5796 60.1706C40.0558 59.8081 40.5464 59.4218 41.0514 59.0118C35.7002 54.9937 28.1889 48.6637 24.1108 45.0206C14.8164 36.7124 11.7171 22.8674 24.1108 17.3287C25.9412 16.4953 27.8971 15.9714 29.8989 15.7781Z" fill="#CA0B4A"/>
<path d="M47.0372 36.7733C49.5805 38.2417 53.649 35.9563 56.1245 31.6687C58.5999 27.3811 58.5449 22.7149 56.0016 21.2465C53.4583 19.7782 49.3897 22.0636 46.9143 26.3512C44.4389 30.6388 44.4939 35.3049 47.0372 36.7733Z" fill="#F37366"/>
</svg>
